<?xml version="1.0" encoding="UTF-8"?>
<svg version="1.1" viewBox="0 0 1120 1120" width="1120" height="1120" xmlns="http://www.w3.org/2000/svg">
<path transform="translate(0)" d="m0 0h1120v1120h-1120z" fill="#E5E6E8"/>
<path transform="translate(0,352)" d="m0 0h5l3 3v2l6 1 2 3 1 13 2 3-1 5 6-1 2 2 5 2 4 8-1 5 6-1 2 2 5 2 4 8-1 5 6-1 2 2 5 2 4 8-1 5 6-1 2 2 4-1 4-6 5 1 1 5-7 5 1 4 1 2-1 5 6-1 2 2 5 2 4 8-1 5 6-1 2 2 5 2 4 8-1 5 6-1 2 2 5 2 4 8-1 5 6-1 2 2 5 2 4 8-1 5 6-1 2 2 5 2 4 8-1 5 6-1 2 2 5 2 4 8-1 5 6-1 2 2 13 1 7 2 3 11 2 2 11 3 2 7v6 3l-2 1-12-1v10l1 1 11 1 3 3 1 13 6-1 4 1v2h51l13 3 9 5 6 7 2 5v14l-4 8-7 7-11 5 4 7 2 1-1-3-2-2 1-4 5-1v2h5l-2-5 4-2 1-3h3v-2l2 1-1 2h2v-6l2 3 2-2 6 1 3 3-1 5-7-1v2l-2 1-1 6h2l1 4h5l1 2 7 1 1 13 2 2 10 1 2 5h2l1 6 1-1v-76l-2-5-8-4 1-5h71l2 14v10l-4-1-6-11-4-3-11-2h-17v38l17-1 5-4 2-7h5l1 1v27l-1 3h-5l-5-9-4-2-16-1 1 40 1 2 3 1h13l10-2 6-4 4-9 2-7h5v11l-1 14-1 3h-75v-4l6-1v-2l-8 2 1 8h-4l1 7h6v-2l6-4 9-1h15v2l3-1 2 1-1 5-2 2-12 1 2 8 2 5 4-1 4 2v2l3 1v4l3 1-4 2-3-1-3 1v-2l-4 1v2l2 1-2 4-5-3 3 13 3-7 2-7h7v6l1-5 6 1 1-10h-6l-1-12 2-1 1-5 5-1 5 5 6 4-1 3-6 1-1 3h-2v2h6l4 3-3 5-3-1v4 3l-2 1 1 6h-2v2h2l-1 3h-2l1 5 4-1 2-3 8 2h5v-2l-13-5-1-2v-7l4-4 8-1 9 3-2 5-10-1-2 2 12 4 3 4-1 6-4 4h-15l2 1h11l6-2 3-3v4l1-6h1l1 4v-5l2-4 1 3h2v2l3 1 1 3v3l13 1 1 1v7l-14 1 2-7-7-1 1 7-3 3v10l7 3 2 4 2 10 5-1 7 2 2 6v9h12l4 5v11h11l5 5v11h11l3 1 2 6v9l14-1 3 4-1 13 14-1 3 4-1 13 14-1 2 2h7l6 2 2 6v6l6 4 8 3 2 6 1 5 1 2-1 13 16-1 1 3 4-1 7 3 3 8v6l3 1-2 3v10h11l4 2 1 3v11h9l5-1 3 4-1 4v9h10l4 2 2 5v9h11l3 1 2 6v9h9l5-1 3 4-1 4v9l22-1 2 2h15l5 3 3 13v7l2 3-1 5 6-1 2 2 4-1 4-6 5 1 3 6 5 3 3 5 5 2 1 1v6h-776z" fill="#C5C8CD"/>
<path transform="translate(710,206)" d="m0 0h2v61l-4 12-4 6-5 5-9 6-14 4-42 6-21 5-19 8-13 7-17 12-15 14-8 9-10 14-4-2-9-15-7-15-4-12-3-19v-11l2-14 4-10 8-12 15-15 14-9 16-8 21-7 20-4 16-2 14-1 58-1 11-4z" fill="008B8B"/>
<path transform="translate(714,314)" d="m0 0 2 3v16l-2 21-4 18-5 13-5 9-7 9-9 8-14 7-11 2h-43l-25 2-18 4-21 7-16 8-14 9-11 9-7 6-7 8-8 10-14 21-8 13-10 17-10 18-9 17-3 2-8-1-17-12-1-4 9-10 15-16 7-8 9-10 9-11 10-12 12-16 14-18 10-13 14-17 12-14 15-16 17-17 11-9 10-8 13-8 14-7 15-5 24-5 39-4 12-3 9-6z" fill="008B8B"/>
<path transform="translate(692,433)" d="m0 0h2l-3 11-12 25-8 12-11 13-8 8-13 10-13 8-17 8-15 5-23 4h-32l-19-3-21-6-20-9 1-4 8-10 9-10 11-11 15-11 17-9 18-6 14-3 18-2 18-1h40l13-2 11-4 11-6z" fill="008B8B"/>
<path transform="translate(473,287)" d="m0 0h2v46l4 16 8 16 6 9 11 12 8 7-2 5-15 22-28 42-16 25-5-5-10-18-7-16-5-17-2-12-1-11v-19l3-21 5-18 8-18 11-18 11-13 9-10z" fill="008B8B"/>
<path transform="translate(238,608)" d="m0 0h49l13 3 9 5 6 7 2 5v14l-4 8-7 7-11 5 7 11 14 19 8 10 8 2 1 5h-30l-20-30-11-14-3-2 1 35 3 5 8 1 1 5-43 1-1-1v-5l7-1 2-3 1-5v-71l-3-8-7-2z" fill="008B8B"/>
<path transform="translate(623,608)" d="m0 0h47l14 3 8 4 5 4 5 9v14l-4 8-9 8-7 3h-4l10 15 13 18 8 9 7 1v5h-28l-12-17-13-18-7-9-3-2 1 34 2 6 10 1 1 5h-45v-4l9-3 2-8v-64l-1-10-2-4-8-3z" fill="008B8B"/>
<path transform="translate(531,608)" d="m0 0h46l10 2 9 4 8 7 4 9v13l-3 8-6 7-10 5-8 2h-18l1 33 3 5 9 1v5h-44v-5l7-1 3-4v-72l-2-9-1-2-9-3z" fill="008B8B"/>
<path transform="translate(440,608)" d="m0 0h70l1 1 2 19v5h-4l-7-13-8-4-10-1h-13l-1 38 17-1 5-4 3-7h5l1 1-1 30h-5l-4-8v-2l-5-1-16-1 1 39 1 4h16l9-1 6-4 5-10 2-7 5 1-1 26-1 1h-74v-5l7-1 3-5v-76l-3-6-6-3-1-4z" fill="008B8B"/>
<path transform="translate(346,608)" d="m0 0h71l2 14v10l-4-1-6-11-4-3-11-2h-17v38l17-1 5-4 2-7h5l1 1v27l-1 3h-5l-5-9-4-2-16-1 1 40 1 2 3 1h13l10-2 6-4 4-9 2-7h5v11l-1 14-1 3h-75v-4l9-3 2-4v-76l-2-5-8-4z" fill="008B8B"/>
<path transform="translate(730,608)" d="m0 0h69l1 1 2 17v6l-5-1-5-10v-2l-5-2-11-2h-17v38h10l7-1 5-6 2-5h5l1 3-1 28-5-1-4-8-3-2-18-1 1 40 1 2 6 1 18-1 6-3h2l2-4 4-9 2-6h4v11l-2 17-1 1h-75v-4l9-3 2-4v-78l-2-4-7-3v-4z" fill="008B8B"/>
<path transform="translate(941,607)" d="m0 0h17l11 3 4-3 4 1 3 25-2 2-4-1-7-13-6-5-6-2h-11l-6 3-3 4-1 6 2 6 4 5 23 12 13 7 7 7 4 10v14l-4 10-8 8-11 5-4 1h-17l-13-4-5-2-1 5-5-1-3-20v-10h5l7 12 6 7 10 5 8 1 9-2 5-4 3-7-1-9-3-5-8-6-28-14-8-7-4-8-1-5v-7l3-9 4-6 9-6z" fill="008B8B"/>
<path transform="translate(849,607)" d="m0 0h18l7 2h5l2-2 5 1 2 16v10l-4 1-4-6-5-9-8-5-3-1h-11l-6 3-3 3-1 3v7l4 7 8 6 23 11 8 6 6 7 3 8v11l-3 10-8 9-7 4-10 3h-14l-13-4-7-3v6h-5l-3-20-1-11h6l6 11 6 7 8 5 3 1h13l6-3 4-6v-11l-4-6-10-7-21-10-9-7-5-7-2-7v-9l4-11 4-5 10-6z" fill="008B8B"/>
<path transform="translate(146,608)" d="m0 0h75l1 5 1 20h-5l-5-11-5-5-15-2-16-1v41l17-2 5-5 2-6h6v30h-5l-5-8-7-2-13-1 1 38 3 4 8 1v5l-42 1-1-1v-5l8-1 1-4v-77l-3-6-7-3z" fill="008B8B"/>
<path transform="translate(653,614)" d="m0 0h12l8 3 6 6 2 6v15l-3 7-6 5-7 2h-12z" fill="#E5E6E8"/>
<path transform="translate(269,614)" d="m0 0h10l9 3 6 7 2 5v15l-4 8-5 4-7 2h-11z" fill="#C6C9CE"/>
<path transform="translate(563,614)" d="m0 0h7l9 3 6 7 3 10v9l-3 9-7 6-8 2h-7z" fill="#E4E5E7"/>
<path transform="translate(340,748)" d="m0 0h7l5 14 5-14h7l4 14 3-7 2-7h7l-3 12-4 13-1 1h-7l-4-12v-3h-2l-1 8-2 7h-8l-6-18-2-5z" fill="008B8B"/>
<path transform="translate(682,748)" d="m0 0h7l5 14 3-8 2-6h6l5 15 5-15h7l-3 12-5 14h-8l-4-13-4 13h-7l-4-9-5-14z" fill="008B8B"/>
<path transform="translate(777,748)" d="m0 0h18l4 2 1 7-1 4 2 3-1 7-2 2-4 1h-17z" fill="008B8B"/>
<path transform="translate(457,748)" d="m0 0h16l6 4 3 8-2 8-6 5-2 1h-15z" fill="008B8B"/>
<path transform="translate(264,748)" d="m0 0h6l10 11 1 2 1-13h6l1 11v15h-7l-11-14-1 14h-6z" fill="008B8B"/>
<path transform="translate(584,748)" d="m0 0h5l8 8 4 5 1-13h5l1 3v23h-7l-10-14-1 14h-6z" fill="008B8B"/>
<path transform="translate(217,748)" d="m0 0h8l9 20 2 6h-7l-2-3h-11l-1 3h-7l1-6z" fill="008B8B"/>
<path transform="translate(637,747)" d="m0 0 9 1 3 2-1 4-3 1-2-1h-7l-3 1-1 7 3 5 7 1 3-3h-6l-1-3 2-3 11 1v10l-6 4h-12l-5-3-3-6v-8l3-5 5-4z" fill="008B8B"/>
<path transform="translate(739,748)" d="m0 0h20v5h-13v5h12v6h-12l1 4h11l1 1v5h-19l-1-1z" fill="008B8B"/>
<path transform="translate(404,747)" d="m0 0 9 1 4 2-2 5-10-1-2 2 12 4 3 4-1 6-4 4h-13l-5-3 2-5 8 2h5v-2l-13-5-1-2v-7l4-4z" fill="008B8B"/>
<path transform="translate(882,748)" d="m0 0h20v5l-13 1v4h12v6h-12v5h13v5h-20z" fill="008B8B"/>
<path transform="translate(306,748)" d="m0 0h20v5l-12 1-1 4h12v5l-4 1h-8l1 4 12 1v5h-20z" fill="008B8B"/>
<path transform="translate(376,660)" d="m0 0h1v36h3l1-23 3 2 1 14 2 2 5 2 5 4-1 1 5 1-2 4-5 1h-13l-4-2-1-2z" fill="#C7CACE"/>
<path transform="translate(842,748)" d="m0 0h23v5h-8v21h-6l-1-10v-11h-8z" fill="008B8B"/>
<path transform="translate(520,748)" d="m0 0h23v5h-8v21h-6l-1-20-8-1z" fill="008B8B"/>
<path transform="translate(498,748)" d="m0 0h6v26h-6l-1-1v-24z" fill="008B8B"/>
<path transform="translate(819,748)" d="m0 0h6v26h-6l-1-4v-21z" fill="008B8B"/>
<path transform="translate(398,746)" d="m0 0 3 1-4 5v9l11 3 3 2-1 3-8-1-5-1-2 3h-4l-1-5 3-3h-2l1-3-1-3 1-2-2-1 3-2 4-2z" fill="#DDDEE1"/>
<path transform="translate(383,738)" d="m0 0 1 2h4v7l-1 3h-5l-2 5h-1l1-7h-7l-2 10-2 6-2-2-2-10v-3l4 1 1 1v-4-2l4-1v2l4-2h3 2l-2-1v-3h2z" fill="#E3E4E6"/>
<path transform="translate(464,753)" d="m0 0 9 2 2 4-1 7-5 3h-5l-1-1v-14z" fill="#DCDEE1"/>
<path transform="translate(559,748)" d="m0 0h6v26h-6z" fill="008B8B"/>
<path transform="translate(338,656)" d="m0 0 5 1 1 1v12l-2 2h-6v-14z" fill="#C5C8CD"/>
<path transform="translate(376,660)" d="m0 0h1v36l4-1v5l-1-2h-2l1 2 3 1 1-2v2h9l4 1v-2h4l-1 3-5 1h-13l-4-2-1-2z" fill="#D4D6DA"/>
<path transform="translate(275,615)" d="m0 0h8l6 3 5 6 2 5v15l-3 6-3-2 2-1 1-3v-14l-2 2v-5l-2 1 1-5-2-3h-6l-3-3z" fill="#E1E3E5"/>
<path transform="translate(235,613)" d="m0 0 9 1 3 3 1 3v36h-1l-2-32-4-7h-5z" fill="#E6E7E9"/>
<path transform="translate(310,652)" d="m0 0 3 1-1 3-4 1 2 6-6-1v-2l-5 1v5l2-1 1 3-1 2-3-1-4-8 12-5z" fill="#DDDFE2"/>
<path transform="translate(269,614)" d="m0 0h5l-1 2h-2v36l-2-3z" fill="#D7D9DC"/>
<path transform="translate(528,870)" d="m0 0h3v2l7 2v5l-1 1h-7l-2-2z" fill="#C5C8CD"/>
<path transform="translate(377,746)" d="m0 0 3 2h-7l-2 10-2 6-2-2-2-10v-3l4 1 1 1 2-4z" fill="#D4D6DA"/>
<path transform="translate(546,888)" d="m0 0h7l1 1v6l-1 1h-7l-2-2 1-5z" fill="#C5C8CD"/>
<path transform="translate(351,748)" d="m0 0 2 1 1-1 2 1-1 7-2 7-2-1-3-9v-4z" fill="#CACDD2"/>
<path transform="translate(269,747)" d="m0 0h3v2l6 1v3h2v-4h2v13l-5-5-8-9z" fill="#D5D7DA"/>
<path transform="translate(784,763)" d="m0 0h9l2 4-3 2h-8z" fill="#DADCDF"/>
<path transform="translate(450,792)" d="m0 0 5 1 1 5-2 2h-6v-6z" fill="#C5C8CD"/>
<path transform="translate(339,749)" d="m0 0 2 2 6 16v5h-2l-5-14v-3l-2-1v-3z" fill="#DDDEE1"/>
<path transform="translate(400,762)" d="m0 0 10 3v4l-8-1-5-2z" fill="#CED0D4"/>
<path transform="translate(235,613)" d="m0 0 9 1 3 3 1 4-3 1-5-5-5-1z" fill="#DCDEE1"/>
<path transform="translate(396,761)" d="m0 0 4 1-1 3h-2l-2 5h-4l-1-5 4-1z" fill="#D8DADD"/>
<path transform="translate(275,615)" d="m0 0h8l6 3 5 6-1 2-1-3h-2l-2-3h-6l-3-3z" fill="#DDDFE1"/>
<path transform="translate(784,753)" d="m0 0 9 1v4h-9l-1-4z" fill="#DEE0E2"/>
<path transform="translate(314,753)" d="m0 0h8l1 4-10 1z" fill="#D4D6DA"/>
<path transform="translate(313,764)" d="m0 0h11l1 2-4-1v2l2 1h-10z" fill="#E0E2E4"/>
<path transform="translate(359,759)" d="m0 0h2l2 6v5l-5-2z" fill="#D9DBDE"/>
<path transform="translate(405,753)" d="m0 0 10 2-3 2-7 1-3-3z" fill="#D5D7DB"/>
<path transform="translate(466,758)" d="m0 0h7l-2 1 1 4-4 4-2-1 1-5h2v-2z" fill="#C5C8CD"/>
<path transform="translate(220,757)" d="m0 0h2l2 5v3h-6l1-5z" fill="#CED0D4"/>
<path transform="translate(315,685)" d="m0 0 2 1 3 11-5-5-2-5z" fill="#DEE0E2"/>
<path transform="translate(351,748)" d="m0 0 2 1 1-1 2 1-1 5-4-3-1 3-2-1v-4z" fill="#E0E1E4"/>
<path transform="translate(409,689)" d="m0 0 1 4-3 4-4-3 3-4z" fill="#C5C8CD"/>
<path transform="translate(291,692)" d="m0 0h2l6 9v2h-2l-7-9z" fill="#DCDDE0"/>
<path transform="translate(294,661)" d="m0 0 4 1 1 4 2-1 1 3-1 2-3-1z" fill="#D9DBDE"/>
</svg>
